{
	"asset":{
		"generator":"Khronos glTF Blender I/O v4.5.47",
		"version":"2.0"
	},
	"scene":0,
	"scenes":[
		{
			"name":"Scene",
			"nodes":[
				0
			]
		}
	],
	"nodes":[
		{
			"mesh":0,
			"name":"Cube.026",
			"rotation":[
				-0.789322018623352,
				0,
				0,
				0.6139794588088989
			],
			"scale":[
				-0.014999999664723873,
				-0.5682013630867004,
				-0.015000000596046448
			],
			"translation":[
				-1.0055040121078491,
				0,
				0
			]
		}
	],
	"meshes":[
		{
			"name":"Cube.017",
			"primitives":[
				{
					"attributes":{
						"POSITION":0,
						"NORMAL":1,
						"TEXCOORD_0":2
					},
					"indices":3
				}
			]
		}
	],
	"accessors":[
		{
			"bufferView":0,
			"componentType":5126,
			"count":27446,
			"max":[
				74.62483215332031,
				1.584463119506836,
				16.087526321411133
			],
			"min":[
				-203.9940643310547,
				-1.0036640167236328,
				-74.20112609863281
			],
			"type":"VEC3"
		},
		{
			"bufferView":1,
			"componentType":5126,
			"count":27446,
			"type":"VEC3"
		},
		{
			"bufferView":2,
			"componentType":5126,
			"count":27446,
			"type":"VEC2"
		},
		{
			"bufferView":3,
			"componentType":5123,
			"count":41376,
			"type":"SCALAR"
		}
	],
	"bufferViews":[
		{
			"buffer":0,
			"byteLength":329352,
			"byteOffset":0,
			"target":34962
		},
		{
			"buffer":0,
			"byteLength":329352,
			"byteOffset":329352,
			"target":34962
		},
		{
			"buffer":0,
			"byteLength":219568,
			"byteOffset":658704,
			"target":34962
		},
		{
			"buffer":0,
			"byteLength":82752,
			"byteOffset":878272,
			"target":34963
		}
	],
	"buffers":[
		{
			"byteLength":961024,
			"uri":"axle.bin"
		}
	]
}
