{
	"asset":{
		"generator":"Khronos glTF Blender I/O v4.5.47",
		"version":"2.0"
	},
	"scene":0,
	"scenes":[
		{
			"name":"Scene",
			"nodes":[
				0
			]
		}
	],
	"nodes":[
		{
			"mesh":0,
			"name":"Cylinder.018",
			"rotation":[
				0.7071068286895752,
				-0.7071068286895752,
				0,
				9.833801328795744e-08
			],
			"scale":[
				1.100000023841858,
				0.30000001192092896,
				1.100000023841858
			],
			"translation":[
				-0.5614771842956543,
				0.10067462921142578,
				13.434442520141602
			]
		}
	],
	"meshes":[
		{
			"name":"Cylinder.024",
			"primitives":[
				{
					"attributes":{
						"POSITION":0,
						"NORMAL":1,
						"TEXCOORD_0":2
					},
					"indices":3
				}
			]
		}
	],
	"accessors":[
		{
			"bufferView":0,
			"componentType":5126,
			"count":3288,
			"max":[
				1.3630627393722534,
				1.9831804037094116,
				1.3630626201629639
			],
			"min":[
				-1.3630627393722534,
				-2.2139732837677,
				-1.3630629777908325
			],
			"type":"VEC3"
		},
		{
			"bufferView":1,
			"componentType":5126,
			"count":3288,
			"type":"VEC3"
		},
		{
			"bufferView":2,
			"componentType":5126,
			"count":3288,
			"type":"VEC2"
		},
		{
			"bufferView":3,
			"componentType":5123,
			"count":10308,
			"type":"SCALAR"
		}
	],
	"bufferViews":[
		{
			"buffer":0,
			"byteLength":39456,
			"byteOffset":0,
			"target":34962
		},
		{
			"buffer":0,
			"byteLength":39456,
			"byteOffset":39456,
			"target":34962
		},
		{
			"buffer":0,
			"byteLength":26304,
			"byteOffset":78912,
			"target":34962
		},
		{
			"buffer":0,
			"byteLength":20616,
			"byteOffset":105216,
			"target":34963
		}
	],
	"buffers":[
		{
			"byteLength":125832,
			"uri":"back_left_wheel.bin"
		}
	]
}
