{
	"asset":{
		"generator":"Khronos glTF Blender I/O v4.5.47",
		"version":"2.0"
	},
	"scene":0,
	"scenes":[
		{
			"name":"Scene",
			"nodes":[
				0
			]
		}
	],
	"nodes":[
		{
			"mesh":0,
			"name":"Cylinder.019",
			"rotation":[
				0.12278773635625839,
				-0.12278790026903152,
				0.6963642835617065,
				0.6963642239570618
			],
			"scale":[
				-1.0999999046325684,
				-0.30000001192092896,
				-1.0999999046325684
			],
			"translation":[
				0.47113823890686035,
				-0.7615163922309875,
				-6.285853385925293
			]
		}
	],
	"meshes":[
		{
			"name":"Cylinder.028",
			"primitives":[
				{
					"attributes":{
						"POSITION":0,
						"NORMAL":1,
						"TEXCOORD_0":2
					},
					"indices":3
				}
			]
		}
	],
	"accessors":[
		{
			"bufferView":0,
			"componentType":5126,
			"count":2911,
			"max":[
				1.3630627393722534,
				1.9831804037094116,
				1.3630626201629639
			],
			"min":[
				-1.3630627393722534,
				-2.2139732837677,
				-1.3630629777908325
			],
			"type":"VEC3"
		},
		{
			"bufferView":1,
			"componentType":5126,
			"count":2911,
			"type":"VEC3"
		},
		{
			"bufferView":2,
			"componentType":5126,
			"count":2911,
			"type":"VEC2"
		},
		{
			"bufferView":3,
			"componentType":5123,
			"count":10308,
			"type":"SCALAR"
		}
	],
	"bufferViews":[
		{
			"buffer":0,
			"byteLength":34932,
			"byteOffset":0,
			"target":34962
		},
		{
			"buffer":0,
			"byteLength":34932,
			"byteOffset":34932,
			"target":34962
		},
		{
			"buffer":0,
			"byteLength":23288,
			"byteOffset":69864,
			"target":34962
		},
		{
			"buffer":0,
			"byteLength":20616,
			"byteOffset":93152,
			"target":34963
		}
	],
	"buffers":[
		{
			"byteLength":113768,
			"uri":"back_right_wheel.bin"
		}
	]
}
