{
	"asset":{
		"generator":"Khronos glTF Blender I/O v4.5.47",
		"version":"2.0"
	},
	"scene":0,
	"scenes":[
		{
			"name":"Scene",
			"nodes":[
				0
			]
		}
	],
	"nodes":[
		{
			"mesh":0,
			"name":"Cylinder.019"
		}
	],
	"meshes":[
		{
			"name":"Cylinder.028",
			"primitives":[
				{
					"attributes":{
						"POSITION":0,
						"NORMAL":1,
						"TEXCOORD_0":2
					},
					"indices":3
				}
			]
		}
	],
	"accessors":[
		{
			"bufferView":0,
			"componentType":5126,
			"count":3616,
			"max":[
				0.5706489086151123,
				1.4983927011489868,
				1.4970210790634155
			],
			"min":[
				-0.6884975433349609,
				-1.494584560394287,
				-1.4959560632705688
			],
			"type":"VEC3"
		},
		{
			"bufferView":1,
			"componentType":5126,
			"count":3616,
			"type":"VEC3"
		},
		{
			"bufferView":2,
			"componentType":5126,
			"count":3616,
			"type":"VEC2"
		},
		{
			"bufferView":3,
			"componentType":5123,
			"count":10308,
			"type":"SCALAR"
		}
	],
	"bufferViews":[
		{
			"buffer":0,
			"byteLength":43392,
			"byteOffset":0,
			"target":34962
		},
		{
			"buffer":0,
			"byteLength":43392,
			"byteOffset":43392,
			"target":34962
		},
		{
			"buffer":0,
			"byteLength":28928,
			"byteOffset":86784,
			"target":34962
		},
		{
			"buffer":0,
			"byteLength":20616,
			"byteOffset":115712,
			"target":34963
		}
	],
	"buffers":[
		{
			"byteLength":136328,
			"uri":"back_wheel.bin"
		}
	]
}
