{
	"asset":{
		"generator":"Khronos glTF Blender I/O v4.5.47",
		"version":"2.0"
	},
	"scene":0,
	"scenes":[
		{
			"name":"Scene",
			"nodes":[
				0
			]
		}
	],
	"nodes":[
		{
			"mesh":0,
			"name":"Cylinder.019",
			"translation":[
				0,
				0,
				-2.8063539048162056e-06
			]
		}
	],
	"meshes":[
		{
			"name":"Cylinder.028",
			"primitives":[
				{
					"attributes":{
						"POSITION":0,
						"NORMAL":1,
						"TEXCOORD_0":2
					},
					"indices":3
				}
			]
		}
	],
	"accessors":[
		{
			"bufferView":0,
			"componentType":5126,
			"count":3694,
			"max":[
				0.5706508159637451,
				1.4983919858932495,
				1.4970239400863647
			],
			"min":[
				-0.6884956359863281,
				-1.4945852756500244,
				-1.4959532022476196
			],
			"type":"VEC3"
		},
		{
			"bufferView":1,
			"componentType":5126,
			"count":3694,
			"type":"VEC3"
		},
		{
			"bufferView":2,
			"componentType":5126,
			"count":3694,
			"type":"VEC2"
		},
		{
			"bufferView":3,
			"componentType":5123,
			"count":10308,
			"type":"SCALAR"
		}
	],
	"bufferViews":[
		{
			"buffer":0,
			"byteLength":44328,
			"byteOffset":0,
			"target":34962
		},
		{
			"buffer":0,
			"byteLength":44328,
			"byteOffset":44328,
			"target":34962
		},
		{
			"buffer":0,
			"byteLength":29552,
			"byteOffset":88656,
			"target":34962
		},
		{
			"buffer":0,
			"byteLength":20616,
			"byteOffset":118208,
			"target":34963
		}
	],
	"buffers":[
		{
			"byteLength":138824,
			"uri":"back_wheel.bin"
		}
	]
}
