{
	"asset":{
		"generator":"Khronos glTF Blender I/O v4.5.47",
		"version":"2.0"
	},
	"scene":0,
	"scenes":[
		{
			"name":"Scene",
			"nodes":[
				0
			]
		}
	],
	"nodes":[
		{
			"mesh":0,
			"name":"Mesh.1348"
		}
	],
	"meshes":[
		{
			"name":"Mesh.1348",
			"primitives":[
				{
					"attributes":{
						"POSITION":0,
						"NORMAL":1,
						"TEXCOORD_0":2,
						"TEXCOORD_1":3
					},
					"indices":4
				}
			]
		}
	],
	"accessors":[
		{
			"bufferView":0,
			"componentType":5126,
			"count":3200,
			"max":[
				25.558744430541992,
				31.62770652770996,
				27.99183464050293
			],
			"min":[
				-16.815168380737305,
				-20.217206954956055,
				-25.399137496948242
			],
			"type":"VEC3"
		},
		{
			"bufferView":1,
			"componentType":5126,
			"count":3200,
			"type":"VEC3"
		},
		{
			"bufferView":2,
			"componentType":5126,
			"count":3200,
			"type":"VEC2"
		},
		{
			"bufferView":3,
			"componentType":5126,
			"count":3200,
			"type":"VEC2"
		},
		{
			"bufferView":4,
			"componentType":5123,
			"count":5136,
			"type":"SCALAR"
		}
	],
	"bufferViews":[
		{
			"buffer":0,
			"byteLength":38400,
			"byteOffset":0,
			"target":34962
		},
		{
			"buffer":0,
			"byteLength":38400,
			"byteOffset":38400,
			"target":34962
		},
		{
			"buffer":0,
			"byteLength":25600,
			"byteOffset":76800,
			"target":34962
		},
		{
			"buffer":0,
			"byteLength":25600,
			"byteOffset":102400,
			"target":34962
		},
		{
			"buffer":0,
			"byteLength":10272,
			"byteOffset":128000,
			"target":34963
		}
	],
	"buffers":[
		{
			"byteLength":138272,
			"uri":"blade.bin"
		}
	]
}
