{
	"asset":{
		"generator":"Khronos glTF Blender I/O v4.5.47",
		"version":"2.0"
	},
	"scene":0,
	"scenes":[
		{
			"name":"Scene",
			"nodes":[
				0
			]
		}
	],
	"nodes":[
		{
			"mesh":0,
			"name":"Mesh.003",
			"translation":[
				37.50715255737305,
				35.692970275878906,
				27.773509979248047
			]
		}
	],
	"meshes":[
		{
			"name":"Mesh.638",
			"primitives":[
				{
					"attributes":{
						"POSITION":0,
						"NORMAL":1,
						"TEXCOORD_0":2,
						"TEXCOORD_1":3
					},
					"indices":4
				}
			]
		}
	],
	"accessors":[
		{
			"bufferView":0,
			"componentType":5126,
			"count":329242,
			"max":[
				574.3987426757812,
				503.1543884277344,
				213.21002197265625
			],
			"min":[
				-664.6076049804688,
				-559.20751953125,
				-46.51276397705078
			],
			"type":"VEC3"
		},
		{
			"bufferView":1,
			"componentType":5126,
			"count":329242,
			"type":"VEC3"
		},
		{
			"bufferView":2,
			"componentType":5126,
			"count":329242,
			"type":"VEC2"
		},
		{
			"bufferView":3,
			"componentType":5126,
			"count":329242,
			"type":"VEC2"
		},
		{
			"bufferView":4,
			"componentType":5125,
			"count":579378,
			"type":"SCALAR"
		}
	],
	"bufferViews":[
		{
			"buffer":0,
			"byteLength":3950904,
			"byteOffset":0,
			"target":34962
		},
		{
			"buffer":0,
			"byteLength":3950904,
			"byteOffset":3950904,
			"target":34962
		},
		{
			"buffer":0,
			"byteLength":2633936,
			"byteOffset":7901808,
			"target":34962
		},
		{
			"buffer":0,
			"byteLength":2633936,
			"byteOffset":10535744,
			"target":34962
		},
		{
			"buffer":0,
			"byteLength":2317512,
			"byteOffset":13169680,
			"target":34963
		}
	],
	"buffers":[
		{
			"byteLength":15487192,
			"uri":"environment.bin"
		}
	]
}
