{
	"asset":{
		"generator":"Khronos glTF Blender I/O v4.5.47",
		"version":"2.0"
	},
	"scene":0,
	"scenes":[
		{
			"name":"Scene",
			"nodes":[
				0
			]
		}
	],
	"nodes":[
		{
			"mesh":0,
			"name":"Sfera.021",
			"translation":[
				49.764488220214844,
				42.77973175048828,
				26.379087448120117
			]
		}
	],
	"meshes":[
		{
			"name":"Sfera.022",
			"primitives":[
				{
					"attributes":{
						"POSITION":0,
						"NORMAL":1,
						"TEXCOORD_0":2,
						"TEXCOORD_1":3
					},
					"indices":4
				}
			]
		}
	],
	"accessors":[
		{
			"bufferView":0,
			"componentType":5126,
			"count":422820,
			"max":[
				692.2227172851562,
				496.067626953125,
				224.83074951171875
			],
			"min":[
				-676.8651123046875,
				-829.1913452148438,
				-339.3312683105469
			],
			"type":"VEC3"
		},
		{
			"bufferView":1,
			"componentType":5126,
			"count":422820,
			"type":"VEC3"
		},
		{
			"bufferView":2,
			"componentType":5126,
			"count":422820,
			"type":"VEC2"
		},
		{
			"bufferView":3,
			"componentType":5126,
			"count":422820,
			"type":"VEC2"
		},
		{
			"bufferView":4,
			"componentType":5125,
			"count":729600,
			"type":"SCALAR"
		}
	],
	"bufferViews":[
		{
			"buffer":0,
			"byteLength":5073840,
			"byteOffset":0,
			"target":34962
		},
		{
			"buffer":0,
			"byteLength":5073840,
			"byteOffset":5073840,
			"target":34962
		},
		{
			"buffer":0,
			"byteLength":3382560,
			"byteOffset":10147680,
			"target":34962
		},
		{
			"buffer":0,
			"byteLength":3382560,
			"byteOffset":13530240,
			"target":34962
		},
		{
			"buffer":0,
			"byteLength":2918400,
			"byteOffset":16912800,
			"target":34963
		}
	],
	"buffers":[
		{
			"byteLength":19831200,
			"uri":"environment.bin"
		}
	]
}
