{
	"asset":{
		"generator":"Khronos glTF Blender I/O v4.5.47",
		"version":"2.0"
	},
	"scene":0,
	"scenes":[
		{
			"name":"Scene",
			"nodes":[
				0
			]
		}
	],
	"nodes":[
		{
			"mesh":0,
			"name":"Cube.007"
		}
	],
	"meshes":[
		{
			"name":"Cube.008",
			"primitives":[
				{
					"attributes":{
						"POSITION":0,
						"NORMAL":1,
						"TEXCOORD_0":2
					},
					"indices":3
				}
			]
		}
	],
	"accessors":[
		{
			"bufferView":0,
			"componentType":5126,
			"count":4280,
			"max":[
				2.065985679626465,
				0.8077952861785889,
				0.5403124094009399
			],
			"min":[
				1.4181973934173584,
				-0.6160677671432495,
				-0.6370890140533447
			],
			"type":"VEC3"
		},
		{
			"bufferView":1,
			"componentType":5126,
			"count":4280,
			"type":"VEC3"
		},
		{
			"bufferView":2,
			"componentType":5126,
			"count":4280,
			"type":"VEC2"
		},
		{
			"bufferView":3,
			"componentType":5123,
			"count":6468,
			"type":"SCALAR"
		}
	],
	"bufferViews":[
		{
			"buffer":0,
			"byteLength":51360,
			"byteOffset":0,
			"target":34962
		},
		{
			"buffer":0,
			"byteLength":51360,
			"byteOffset":51360,
			"target":34962
		},
		{
			"buffer":0,
			"byteLength":34240,
			"byteOffset":102720,
			"target":34962
		},
		{
			"buffer":0,
			"byteLength":12936,
			"byteOffset":136960,
			"target":34963
		}
	],
	"buffers":[
		{
			"byteLength":149896,
			"uri":"Fender.bin"
		}
	]
}
