{
	"asset":{
		"generator":"Khronos glTF Blender I/O v4.5.47",
		"version":"2.0"
	},
	"scene":0,
	"scenes":[
		{
			"name":"Scene",
			"nodes":[
				0
			]
		}
	],
	"nodes":[
		{
			"mesh":0,
			"name":"Cylinder.016",
			"rotation":[
				0,
				0,
				0.7071068286895752,
				0.7071068286895752
			],
			"scale":[
				-0.9470390677452087,
				-0.3321808874607086,
				-0.9470390677452087
			],
			"translation":[
				0.07566452026367188,
				0.4092632532119751,
				0.7001179456710815
			]
		}
	],
	"meshes":[
		{
			"name":"Cylinder.022",
			"primitives":[
				{
					"attributes":{
						"POSITION":0,
						"NORMAL":1,
						"TEXCOORD_0":2
					},
					"indices":3
				}
			]
		}
	],
	"accessors":[
		{
			"bufferView":0,
			"componentType":5126,
			"count":2632,
			"max":[
				1.1770023107528687,
				1,
				1.177001714706421
			],
			"min":[
				-1.1770023107528687,
				-1,
				-1.1770029067993164
			],
			"type":"VEC3"
		},
		{
			"bufferView":1,
			"componentType":5126,
			"count":2632,
			"type":"VEC3"
		},
		{
			"bufferView":2,
			"componentType":5126,
			"count":2632,
			"type":"VEC2"
		},
		{
			"bufferView":3,
			"componentType":5123,
			"count":9936,
			"type":"SCALAR"
		}
	],
	"bufferViews":[
		{
			"buffer":0,
			"byteLength":31584,
			"byteOffset":0,
			"target":34962
		},
		{
			"buffer":0,
			"byteLength":31584,
			"byteOffset":31584,
			"target":34962
		},
		{
			"buffer":0,
			"byteLength":21056,
			"byteOffset":63168,
			"target":34962
		},
		{
			"buffer":0,
			"byteLength":19872,
			"byteOffset":84224,
			"target":34963
		}
	],
	"buffers":[
		{
			"byteLength":104096,
			"uri":"front_left_wheel.bin"
		}
	]
}
