{
	"asset":{
		"generator":"Khronos glTF Blender I/O v4.5.47",
		"version":"2.0"
	},
	"scene":0,
	"scenes":[
		{
			"name":"Scene",
			"nodes":[
				0
			]
		}
	],
	"nodes":[
		{
			"mesh":0,
			"name":"Cylinder.017",
			"translation":[
				-0.49544528126716614,
				-0.05999806150794029,
				-1.202756643295288
			]
		}
	],
	"meshes":[
		{
			"name":"Cylinder.023",
			"primitives":[
				{
					"attributes":{
						"POSITION":0,
						"NORMAL":1,
						"TEXCOORD_0":2
					},
					"indices":3
				}
			]
		}
	],
	"accessors":[
		{
			"bufferView":0,
			"componentType":5126,
			"count":2820,
			"max":[
				0.2897724509239197,
				1.109892725944519,
				1.1120386123657227
			],
			"min":[
				-0.3745940625667572,
				-1.1126418113708496,
				-1.1104958057403564
			],
			"type":"VEC3"
		},
		{
			"bufferView":1,
			"componentType":5126,
			"count":2820,
			"type":"VEC3"
		},
		{
			"bufferView":2,
			"componentType":5126,
			"count":2820,
			"type":"VEC2"
		},
		{
			"bufferView":3,
			"componentType":5123,
			"count":10128,
			"type":"SCALAR"
		}
	],
	"bufferViews":[
		{
			"buffer":0,
			"byteLength":33840,
			"byteOffset":0,
			"target":34962
		},
		{
			"buffer":0,
			"byteLength":33840,
			"byteOffset":33840,
			"target":34962
		},
		{
			"buffer":0,
			"byteLength":22560,
			"byteOffset":67680,
			"target":34962
		},
		{
			"buffer":0,
			"byteLength":20256,
			"byteOffset":90240,
			"target":34963
		}
	],
	"buffers":[
		{
			"byteLength":110496,
			"uri":"front_wheel.bin"
		}
	]
}
