{
	"asset":{
		"generator":"Khronos glTF Blender I/O v4.5.47",
		"version":"2.0"
	},
	"scene":0,
	"scenes":[
		{
			"name":"Scene",
			"nodes":[
				0
			]
		}
	],
	"nodes":[
		{
			"mesh":0,
			"name":"Cylinder.017",
			"rotation":[
				-0.15304501354694366,
				0.15304666757583618,
				0.690345287322998,
				0.6903459429740906
			],
			"scale":[
				0.9470390677452087,
				0.3321808874607086,
				0.9470390677452087
			],
			"translation":[
				-0.5378561019897461,
				-0.06137239933013916,
				-1.2019846439361572
			]
		}
	],
	"meshes":[
		{
			"name":"Cylinder.023",
			"primitives":[
				{
					"attributes":{
						"POSITION":0,
						"NORMAL":1,
						"TEXCOORD_0":2
					},
					"indices":3
				}
			]
		}
	],
	"accessors":[
		{
			"bufferView":0,
			"componentType":5126,
			"count":2217,
			"max":[
				1.175704002380371,
				1,
				1.1757032871246338
			],
			"min":[
				-1.175703763961792,
				-1,
				-1.1757045984268188
			],
			"type":"VEC3"
		},
		{
			"bufferView":1,
			"componentType":5126,
			"count":2217,
			"type":"VEC3"
		},
		{
			"bufferView":2,
			"componentType":5126,
			"count":2217,
			"type":"VEC2"
		},
		{
			"bufferView":3,
			"componentType":5123,
			"count":10128,
			"type":"SCALAR"
		}
	],
	"bufferViews":[
		{
			"buffer":0,
			"byteLength":26604,
			"byteOffset":0,
			"target":34962
		},
		{
			"buffer":0,
			"byteLength":26604,
			"byteOffset":26604,
			"target":34962
		},
		{
			"buffer":0,
			"byteLength":17736,
			"byteOffset":53208,
			"target":34962
		},
		{
			"buffer":0,
			"byteLength":20256,
			"byteOffset":70944,
			"target":34963
		}
	],
	"buffers":[
		{
			"byteLength":91200,
			"uri":"front_right_wheel.bin"
		}
	]
}
