{
	"asset":{
		"generator":"Khronos glTF Blender I/O v4.5.47",
		"version":"2.0"
	},
	"scene":0,
	"scenes":[
		{
			"name":"Scene",
			"nodes":[
				0
			]
		}
	],
	"nodes":[
		{
			"mesh":0,
			"name":"Mesh.1426"
		}
	],
	"meshes":[
		{
			"name":"Mesh.1427",
			"primitives":[
				{
					"attributes":{
						"POSITION":0,
						"NORMAL":1,
						"TEXCOORD_0":2,
						"TEXCOORD_1":3
					},
					"indices":4
				}
			]
		}
	],
	"accessors":[
		{
			"bufferView":0,
			"componentType":5126,
			"count":2798,
			"max":[
				3.464938163757324,
				23.4488525390625,
				23.32723045349121
			],
			"min":[
				-5.5155930519104,
				-22.657119750976562,
				-23.431964874267578
			],
			"type":"VEC3"
		},
		{
			"bufferView":1,
			"componentType":5126,
			"count":2798,
			"type":"VEC3"
		},
		{
			"bufferView":2,
			"componentType":5126,
			"count":2798,
			"type":"VEC2"
		},
		{
			"bufferView":3,
			"componentType":5126,
			"count":2798,
			"type":"VEC2"
		},
		{
			"bufferView":4,
			"componentType":5123,
			"count":6078,
			"type":"SCALAR"
		}
	],
	"bufferViews":[
		{
			"buffer":0,
			"byteLength":33576,
			"byteOffset":0,
			"target":34962
		},
		{
			"buffer":0,
			"byteLength":33576,
			"byteOffset":33576,
			"target":34962
		},
		{
			"buffer":0,
			"byteLength":22384,
			"byteOffset":67152,
			"target":34962
		},
		{
			"buffer":0,
			"byteLength":22384,
			"byteOffset":89536,
			"target":34962
		},
		{
			"buffer":0,
			"byteLength":12156,
			"byteOffset":111920,
			"target":34963
		}
	],
	"buffers":[
		{
			"byteLength":124076,
			"uri":"mill.bin"
		}
	]
}
