{
	"asset":{
		"generator":"Khronos glTF Blender I/O v4.5.47",
		"version":"2.0"
	},
	"scene":0,
	"scenes":[
		{
			"name":"Scene",
			"nodes":[
				0
			]
		}
	],
	"nodes":[
		{
			"mesh":0,
			"name":"Cube.041"
		}
	],
	"meshes":[
		{
			"name":"Cube.048",
			"primitives":[
				{
					"attributes":{
						"POSITION":0,
						"NORMAL":1,
						"TEXCOORD_0":2
					},
					"indices":3
				}
			]
		}
	],
	"accessors":[
		{
			"bufferView":0,
			"componentType":5126,
			"count":1448,
			"max":[
				1.4833496809005737,
				0.17356270551681519,
				1.639802098274231
			],
			"min":[
				-1.4833496809005737,
				-1.7883131504058838,
				-1.3206963539123535
			],
			"type":"VEC3"
		},
		{
			"bufferView":1,
			"componentType":5126,
			"count":1448,
			"type":"VEC3"
		},
		{
			"bufferView":2,
			"componentType":5126,
			"count":1448,
			"type":"VEC2"
		},
		{
			"bufferView":3,
			"componentType":5123,
			"count":3156,
			"type":"SCALAR"
		}
	],
	"bufferViews":[
		{
			"buffer":0,
			"byteLength":17376,
			"byteOffset":0,
			"target":34962
		},
		{
			"buffer":0,
			"byteLength":17376,
			"byteOffset":17376,
			"target":34962
		},
		{
			"buffer":0,
			"byteLength":11584,
			"byteOffset":34752,
			"target":34962
		},
		{
			"buffer":0,
			"byteLength":6312,
			"byteOffset":46336,
			"target":34963
		}
	],
	"buffers":[
		{
			"byteLength":52648,
			"uri":"plow.bin"
		}
	]
}
