{
	"asset":{
		"generator":"Khronos glTF Blender I/O v4.5.47",
		"version":"2.0"
	},
	"scene":0,
	"scenes":[
		{
			"name":"Scene",
			"nodes":[
				0
			]
		}
	],
	"nodes":[
		{
			"mesh":0,
			"name":"Cube.009"
		}
	],
	"meshes":[
		{
			"name":"Cube.008",
			"primitives":[
				{
					"attributes":{
						"POSITION":0,
						"NORMAL":1,
						"TEXCOORD_0":2
					},
					"indices":3
				}
			]
		}
	],
	"accessors":[
		{
			"bufferView":0,
			"componentType":5126,
			"count":109946,
			"max":[
				2.151848077774048,
				2.0631203651428223,
				4.482897758483887
			],
			"min":[
				-2.1401307582855225,
				-2.4827215671539307,
				-3.510561227798462
			],
			"type":"VEC3"
		},
		{
			"bufferView":1,
			"componentType":5126,
			"count":109946,
			"type":"VEC3"
		},
		{
			"bufferView":2,
			"componentType":5126,
			"count":109946,
			"type":"VEC2"
		},
		{
			"bufferView":3,
			"componentType":5125,
			"count":605100,
			"type":"SCALAR"
		}
	],
	"bufferViews":[
		{
			"buffer":0,
			"byteLength":1319352,
			"byteOffset":0,
			"target":34962
		},
		{
			"buffer":0,
			"byteLength":1319352,
			"byteOffset":1319352,
			"target":34962
		},
		{
			"buffer":0,
			"byteLength":879568,
			"byteOffset":2638704,
			"target":34962
		},
		{
			"buffer":0,
			"byteLength":2420400,
			"byteOffset":3518272,
			"target":34963
		}
	],
	"buffers":[
		{
			"byteLength":5938672,
			"uri":"tractor_body.bin"
		}
	]
}
