{
	"asset":{
		"generator":"Khronos glTF Blender I/O v4.5.47",
		"version":"2.0"
	},
	"scene":0,
	"scenes":[
		{
			"name":"Scene",
			"nodes":[
				0
			]
		}
	],
	"nodes":[
		{
			"mesh":0,
			"name":"Cylinder.024",
			"rotation":[
				0,
				1,
				0,
				0
			],
			"scale":[
				-0.14813457429409027,
				-1.4885447025299072,
				-0.14813457429409027
			],
			"translation":[
				-1.4159737825393677,
				3.8687682151794434,
				0
			]
		}
	],
	"meshes":[
		{
			"name":"Cylinder.033",
			"primitives":[
				{
					"attributes":{
						"POSITION":0,
						"NORMAL":1,
						"TEXCOORD_0":2
					},
					"indices":3
				}
			]
		}
	],
	"accessors":[
		{
			"bufferView":0,
			"componentType":5126,
			"count":190018,
			"max":[
				24.014039993286133,
				1.5598739385604858,
				23.739315032958984
			],
			"min":[
				-4.959468841552734,
				-1.4940093755722046,
				-30.221477508544922
			],
			"type":"VEC3"
		},
		{
			"bufferView":1,
			"componentType":5126,
			"count":190018,
			"type":"VEC3"
		},
		{
			"bufferView":2,
			"componentType":5126,
			"count":190018,
			"type":"VEC2"
		},
		{
			"bufferView":3,
			"componentType":5125,
			"count":625485,
			"type":"SCALAR"
		}
	],
	"bufferViews":[
		{
			"buffer":0,
			"byteLength":2280216,
			"byteOffset":0,
			"target":34962
		},
		{
			"buffer":0,
			"byteLength":2280216,
			"byteOffset":2280216,
			"target":34962
		},
		{
			"buffer":0,
			"byteLength":1520144,
			"byteOffset":4560432,
			"target":34962
		},
		{
			"buffer":0,
			"byteLength":2501940,
			"byteOffset":6080576,
			"target":34963
		}
	],
	"buffers":[
		{
			"byteLength":8582516,
			"uri":"tractor_body.bin"
		}
	]
}
