{
	"asset":{
		"generator":"Khronos glTF Blender I/O v4.5.47",
		"version":"2.0"
	},
	"scene":0,
	"scenes":[
		{
			"name":"Scene",
			"nodes":[
				0
			]
		}
	],
	"nodes":[
		{
			"mesh":0,
			"name":"Cube.001",
			"translation":[
				2.5426377760595642e-05,
				-0.0010649561882019043,
				0.003846406936645508
			]
		}
	],
	"meshes":[
		{
			"name":"Cube.028",
			"primitives":[
				{
					"attributes":{
						"POSITION":0,
						"NORMAL":1,
						"TEXCOORD_0":2
					},
					"indices":3
				}
			]
		}
	],
	"accessors":[
		{
			"bufferView":0,
			"componentType":5126,
			"count":110677,
			"max":[
				2.151822566986084,
				2.064185380935669,
				4.47905158996582
			],
			"min":[
				-2.1401562690734863,
				-2.481656551361084,
				-3.5144076347351074
			],
			"type":"VEC3"
		},
		{
			"bufferView":1,
			"componentType":5126,
			"count":110677,
			"type":"VEC3"
		},
		{
			"bufferView":2,
			"componentType":5126,
			"count":110677,
			"type":"VEC2"
		},
		{
			"bufferView":3,
			"componentType":5125,
			"count":608484,
			"type":"SCALAR"
		}
	],
	"bufferViews":[
		{
			"buffer":0,
			"byteLength":1328124,
			"byteOffset":0,
			"target":34962
		},
		{
			"buffer":0,
			"byteLength":1328124,
			"byteOffset":1328124,
			"target":34962
		},
		{
			"buffer":0,
			"byteLength":885416,
			"byteOffset":2656248,
			"target":34962
		},
		{
			"buffer":0,
			"byteLength":2433936,
			"byteOffset":3541664,
			"target":34963
		}
	],
	"buffers":[
		{
			"byteLength":5975600,
			"uri":"tractor_body.bin"
		}
	]
}
