{
	"asset":{
		"generator":"Khronos glTF Blender I/O v4.5.47",
		"version":"2.0"
	},
	"scene":0,
	"scenes":[
		{
			"name":"Scene",
			"nodes":[
				0
			]
		}
	],
	"nodes":[
		{
			"mesh":0,
			"name":"Cylinder.018",
			"translation":[
				0,
				0,
				-3.803561185122817e-06
			]
		}
	],
	"meshes":[
		{
			"name":"Cylinder.024",
			"primitives":[
				{
					"attributes":{
						"POSITION":0,
						"NORMAL":1,
						"TEXCOORD_0":2
					},
					"indices":3
				}
			]
		}
	],
	"accessors":[
		{
			"bufferView":0,
			"componentType":5126,
			"count":4053,
			"max":[
				0.6884958148002625,
				1.5013408660888672,
				1.4992218017578125
			],
			"min":[
				-0.5706510543823242,
				-1.4973971843719482,
				-1.499516487121582
			],
			"type":"VEC3"
		},
		{
			"bufferView":1,
			"componentType":5126,
			"count":4053,
			"type":"VEC3"
		},
		{
			"bufferView":2,
			"componentType":5126,
			"count":4053,
			"type":"VEC2"
		},
		{
			"bufferView":3,
			"componentType":5123,
			"count":10308,
			"type":"SCALAR"
		}
	],
	"bufferViews":[
		{
			"buffer":0,
			"byteLength":48636,
			"byteOffset":0,
			"target":34962
		},
		{
			"buffer":0,
			"byteLength":48636,
			"byteOffset":48636,
			"target":34962
		},
		{
			"buffer":0,
			"byteLength":32424,
			"byteOffset":97272,
			"target":34962
		},
		{
			"buffer":0,
			"byteLength":20616,
			"byteOffset":129696,
			"target":34963
		}
	],
	"buffers":[
		{
			"byteLength":150312,
			"uri":"back_left_wheel.bin"
		}
	]
}
