{
	"asset":{
		"generator":"Khronos glTF Blender I/O v4.5.47",
		"version":"2.0"
	},
	"scene":0,
	"scenes":[
		{
			"name":"Scene",
			"nodes":[
				0
			]
		}
	],
	"nodes":[
		{
			"mesh":0,
			"name":"Cilindro.045",
			"rotation":[
				0,
				0.7071068286895752,
				0,
				0.7071068286895752
			],
			"scale":[
				8.275020599365234,
				3.3947503566741943,
				8.209514617919922
			],
			"translation":[
				-3.471205234527588,
				-0.8641281127929688,
				198.2351531982422
			]
		}
	],
	"meshes":[
		{
			"name":"Cilindro.025",
			"primitives":[
				{
					"attributes":{
						"POSITION":0,
						"NORMAL":1,
						"TEXCOORD_0":2,
						"TEXCOORD_1":3
					},
					"indices":4
				}
			]
		}
	],
	"accessors":[
		{
			"bufferView":0,
			"componentType":5126,
			"count":137762,
			"max":[
				54.999942779541016,
				31.3909912109375,
				30.91847801208496
			],
			"min":[
				-6.829963684082031,
				-7.3977742195129395,
				-31.404783248901367
			],
			"type":"VEC3"
		},
		{
			"bufferView":1,
			"componentType":5126,
			"count":137762,
			"type":"VEC3"
		},
		{
			"bufferView":2,
			"componentType":5126,
			"count":137762,
			"type":"VEC2"
		},
		{
			"bufferView":3,
			"componentType":5126,
			"count":137762,
			"type":"VEC2"
		},
		{
			"bufferView":4,
			"componentType":5125,
			"count":228306,
			"type":"SCALAR"
		}
	],
	"bufferViews":[
		{
			"buffer":0,
			"byteLength":1653144,
			"byteOffset":0,
			"target":34962
		},
		{
			"buffer":0,
			"byteLength":1653144,
			"byteOffset":1653144,
			"target":34962
		},
		{
			"buffer":0,
			"byteLength":1102096,
			"byteOffset":3306288,
			"target":34962
		},
		{
			"buffer":0,
			"byteLength":1102096,
			"byteOffset":4408384,
			"target":34962
		},
		{
			"buffer":0,
			"byteLength":913224,
			"byteOffset":5510480,
			"target":34963
		}
	],
	"buffers":[
		{
			"byteLength":6423704,
			"uri":"environment.bin"
		}
	]
}
