{
	"asset":{
		"generator":"Khronos glTF Blender I/O v4.5.47",
		"version":"2.0"
	},
	"scene":0,
	"scenes":[
		{
			"name":"Scene",
			"nodes":[
				0
			]
		}
	],
	"nodes":[
		{
			"mesh":0,
			"name":"Cylinder.016"
		}
	],
	"meshes":[
		{
			"name":"Cylinder.022",
			"primitives":[
				{
					"attributes":{
						"POSITION":0,
						"NORMAL":1,
						"TEXCOORD_0":2
					},
					"indices":3
				}
			]
		}
	],
	"accessors":[
		{
			"bufferView":0,
			"componentType":5126,
			"count":3338,
			"max":[
				0.37465646862983704,
				1.1167774200439453,
				1.1147066354751587
			],
			"min":[
				-0.2897058427333832,
				-1.1125569343566895,
				-1.114627718925476
			],
			"type":"VEC3"
		},
		{
			"bufferView":1,
			"componentType":5126,
			"count":3338,
			"type":"VEC3"
		},
		{
			"bufferView":2,
			"componentType":5126,
			"count":3338,
			"type":"VEC2"
		},
		{
			"bufferView":3,
			"componentType":5123,
			"count":9936,
			"type":"SCALAR"
		}
	],
	"bufferViews":[
		{
			"buffer":0,
			"byteLength":40056,
			"byteOffset":0,
			"target":34962
		},
		{
			"buffer":0,
			"byteLength":40056,
			"byteOffset":40056,
			"target":34962
		},
		{
			"buffer":0,
			"byteLength":26704,
			"byteOffset":80112,
			"target":34962
		},
		{
			"buffer":0,
			"byteLength":19872,
			"byteOffset":106816,
			"target":34963
		}
	],
	"buffers":[
		{
			"byteLength":126688,
			"uri":"front_left_wheel.bin"
		}
	]
}
