{
	"asset":{
		"generator":"Khronos glTF Blender I/O v4.5.47",
		"version":"2.0"
	},
	"scene":0,
	"scenes":[
		{
			"name":"Scene",
			"nodes":[
				0
			]
		}
	],
	"nodes":[
		{
			"mesh":0,
			"name":"Cylinder.017"
		}
	],
	"meshes":[
		{
			"name":"Cylinder.023",
			"primitives":[
				{
					"attributes":{
						"POSITION":0,
						"NORMAL":1,
						"TEXCOORD_0":2
					},
					"indices":3
				}
			]
		}
	],
	"accessors":[
		{
			"bufferView":0,
			"componentType":5126,
			"count":2916,
			"max":[
				-0.20567283034324646,
				1.0498946905136108,
				-0.09071803092956543
			],
			"min":[
				-0.8700393438339233,
				-1.1726398468017578,
				-2.3132524490356445
			],
			"type":"VEC3"
		},
		{
			"bufferView":1,
			"componentType":5126,
			"count":2916,
			"type":"VEC3"
		},
		{
			"bufferView":2,
			"componentType":5126,
			"count":2916,
			"type":"VEC2"
		},
		{
			"bufferView":3,
			"componentType":5123,
			"count":10128,
			"type":"SCALAR"
		}
	],
	"bufferViews":[
		{
			"buffer":0,
			"byteLength":34992,
			"byteOffset":0,
			"target":34962
		},
		{
			"buffer":0,
			"byteLength":34992,
			"byteOffset":34992,
			"target":34962
		},
		{
			"buffer":0,
			"byteLength":23328,
			"byteOffset":69984,
			"target":34962
		},
		{
			"buffer":0,
			"byteLength":20256,
			"byteOffset":93312,
			"target":34963
		}
	],
	"buffers":[
		{
			"byteLength":113568,
			"uri":"front_right_wheel..bin"
		}
	]
}
