{
	"asset":{
		"generator":"Khronos glTF Blender I/O v4.5.47",
		"version":"2.0"
	},
	"scene":0,
	"scenes":[
		{
			"name":"Scene",
			"nodes":[
				0
			]
		}
	],
	"nodes":[
		{
			"mesh":0,
			"name":"Cube.001"
		}
	],
	"meshes":[
		{
			"name":"Cube.001",
			"primitives":[
				{
					"attributes":{
						"POSITION":0,
						"NORMAL":1,
						"TEXCOORD_0":2
					},
					"indices":3
				}
			]
		}
	],
	"accessors":[
		{
			"bufferView":0,
			"componentType":5126,
			"count":13310,
			"max":[
				-0.9768949151039124,
				0.808527946472168,
				0.5403124094009399
			],
			"min":[
				-2.113297700881958,
				-0.6160677075386047,
				-0.6370890140533447
			],
			"type":"VEC3"
		},
		{
			"bufferView":1,
			"componentType":5126,
			"count":13310,
			"type":"VEC3"
		},
		{
			"bufferView":2,
			"componentType":5126,
			"count":13310,
			"type":"VEC2"
		},
		{
			"bufferView":3,
			"componentType":5123,
			"count":20052,
			"type":"SCALAR"
		}
	],
	"bufferViews":[
		{
			"buffer":0,
			"byteLength":159720,
			"byteOffset":0,
			"target":34962
		},
		{
			"buffer":0,
			"byteLength":159720,
			"byteOffset":159720,
			"target":34962
		},
		{
			"buffer":0,
			"byteLength":106480,
			"byteOffset":319440,
			"target":34962
		},
		{
			"buffer":0,
			"byteLength":40104,
			"byteOffset":425920,
			"target":34963
		}
	],
	"buffers":[
		{
			"byteLength":466024,
			"uri":"left_fender.bin"
		}
	]
}
