{
	"asset":{
		"generator":"Khronos glTF Blender I/O v4.5.47",
		"version":"2.0"
	},
	"scene":0,
	"scenes":[
		{
			"name":"Scene",
			"nodes":[
				0
			]
		}
	],
	"nodes":[
		{
			"mesh":0,
			"name":"Cube.026"
		}
	],
	"meshes":[
		{
			"name":"Cube.017",
			"primitives":[
				{
					"attributes":{
						"POSITION":0,
						"NORMAL":1,
						"TEXCOORD_0":2
					},
					"indices":3
				}
			]
		}
	],
	"accessors":[
		{
			"bufferView":0,
			"componentType":5126,
			"count":13316,
			"max":[
				2.065985679626465,
				0.8077952861785889,
				0.5415202379226685
			],
			"min":[
				1.0083789825439453,
				-0.6160677671432495,
				-0.6370890140533447
			],
			"type":"VEC3"
		},
		{
			"bufferView":1,
			"componentType":5126,
			"count":13316,
			"type":"VEC3"
		},
		{
			"bufferView":2,
			"componentType":5126,
			"count":13316,
			"type":"VEC2"
		},
		{
			"bufferView":3,
			"componentType":5123,
			"count":20052,
			"type":"SCALAR"
		}
	],
	"bufferViews":[
		{
			"buffer":0,
			"byteLength":159792,
			"byteOffset":0,
			"target":34962
		},
		{
			"buffer":0,
			"byteLength":159792,
			"byteOffset":159792,
			"target":34962
		},
		{
			"buffer":0,
			"byteLength":106528,
			"byteOffset":319584,
			"target":34962
		},
		{
			"buffer":0,
			"byteLength":40104,
			"byteOffset":426112,
			"target":34963
		}
	],
	"buffers":[
		{
			"byteLength":466216,
			"uri":"right_fender.bin"
		}
	]
}
